<svg id="visual" viewBox="0 0 960 540" width="960" height="540" xmlns="http://www.w3.org/2000/svg" xmlns:xlink="http://www.w3.org/1999/xlink" version="1.1"><rect x="0" y="0" width="960" height="540" fill="#ffffff"></rect><path d="M139 0L143.2 12.8C147.3 25.7 155.7 51.3 167 77C178.3 102.7 192.7 128.3 194.7 154C196.7 179.7 186.3 205.3 186.2 231.2C186 257 196 283 203.2 308.8C210.3 334.7 214.7 360.3 208.3 386C202 411.7 185 437.3 178.5 463C172 488.7 176 514.3 178 527.2L180 540L0 540L0 527.2C0 514.3 0 488.7 0 463C0 437.3 0 411.7 0 386C0 360.3 0 334.7 0 308.8C0 283 0 257 0 231.2C0 205.3 0 179.7 0 154C0 128.3 0 102.7 0 77C0 51.3 0 25.7 0 12.8L0 0Z" fill="#3c4de5"></path><path d="M96 0L107.7 12.8C119.3 25.7 142.7 51.3 149.5 77C156.3 102.7 146.7 128.3 136.5 154C126.3 179.7 115.7 205.3 124.2 231.2C132.7 257 160.3 283 168.8 308.8C177.3 334.7 166.7 360.3 159.8 386C153 411.7 150 437.3 149.3 463C148.7 488.7 150.3 514.3 151.2 527.2L152 540L0 540L0 527.2C0 514.3 0 488.7 0 463C0 437.3 0 411.7 0 386C0 360.3 0 334.7 0 308.8C0 283 0 257 0 231.2C0 205.3 0 179.7 0 154C0 128.3 0 102.7 0 77C0 51.3 0 25.7 0 12.8L0 0Z" fill="#6b46e0"></path><path d="M124 0L119.2 12.8C114.3 25.7 104.7 51.3 101.8 77C99 102.7 103 128.3 111 154C119 179.7 131 205.3 127.2 231.2C123.3 257 103.7 283 100.2 308.8C96.7 334.7 109.3 360.3 112.3 386C115.3 411.7 108.7 437.3 106.2 463C103.7 488.7 105.3 514.3 106.2 527.2L107 540L0 540L0 527.2C0 514.3 0 488.7 0 463C0 437.3 0 411.7 0 386C0 360.3 0 334.7 0 308.8C0 283 0 257 0 231.2C0 205.3 0 179.7 0 154C0 128.3 0 102.7 0 77C0 51.3 0 25.7 0 12.8L0 0Z" fill="#8b3dd9"></path><path d="M100 0L97.5 12.8C95 25.7 90 51.3 90.5 77C91 102.7 97 128.3 94 154C91 179.7 79 205.3 70.8 231.2C62.7 257 58.3 283 58.8 308.8C59.3 334.7 64.7 360.3 64.8 386C65 411.7 60 437.3 63.7 463C67.3 488.7 79.7 514.3 85.8 527.2L92 540L0 540L0 527.2C0 514.3 0 488.7 0 463C0 437.3 0 411.7 0 386C0 360.3 0 334.7 0 308.8C0 283 0 257 0 231.2C0 205.3 0 179.7 0 154C0 128.3 0 102.7 0 77C0 51.3 0 25.7 0 12.8L0 0Z" fill="#a432d1"></path><path d="M64 0L65 12.8C66 25.7 68 51.3 68.7 77C69.3 102.7 68.7 128.3 64.3 154C60 179.7 52 205.3 46.2 231.2C40.3 257 36.7 283 39.8 308.8C43 334.7 53 360.3 59.5 386C66 411.7 69 437.3 65.3 463C61.7 488.7 51.3 514.3 46.2 527.2L41 540L0 540L0 527.2C0 514.3 0 488.7 0 463C0 437.3 0 411.7 0 386C0 360.3 0 334.7 0 308.8C0 283 0 257 0 231.2C0 205.3 0 179.7 0 154C0 128.3 0 102.7 0 77C0 51.3 0 25.7 0 12.8L0 0Z" fill="#ba24c7"></path></svg>